<svg width="28" height="28" viewBox="0 0 28 28" fill="none" xmlns="http://www.w3.org/2000/svg">
  <!-- top face -->
  <polygon points="14,2 26,8 14,14 2,8" fill="#f5c400"/>
  <!-- left face -->
  <polygon points="2,8 14,14 14,26 2,20" fill="#009b48"/>
  <!-- right face -->
  <polygon points="26,8 14,14 14,26 26,20" fill="#e05a00"/>
  <!-- grid lines top -->
  <line x1="14" y1="2" x2="14" y2="14" stroke="white" stroke-width="0.8"/>
  <line x1="8" y1="5" x2="20" y2="11" stroke="white" stroke-width="0.8"/>
  <line x1="20" y1="5" x2="8" y2="11" stroke="white" stroke-width="0.8"/>
  <!-- grid lines left -->
  <line x1="2" y1="8" x2="14" y2="14" stroke="white" stroke-width="0.8"/>
  <line x1="2" y1="14" x2="14" y2="20" stroke="white" stroke-width="0.8"/>
  <line x1="6" y1="10" x2="6" y2="22" stroke="white" stroke-width="0.8"/>
  <line x1="10" y1="12" x2="10" y2="24" stroke="white" stroke-width="0.8"/>
  <!-- grid lines right -->
  <line x1="26" y1="8" x2="14" y2="14" stroke="white" stroke-width="0.8"/>
  <line x1="26" y1="14" x2="14" y2="20" stroke="white" stroke-width="0.8"/>
  <line x1="22" y1="10" x2="22" y2="22" stroke="white" stroke-width="0.8"/>
  <line x1="18" y1="12" x2="18" y2="24" stroke="white" stroke-width="0.8"/>
</svg>
